<svg width="252" height="28" viewBox="0 0 252 28" fill="none" xmlns="http://www.w3.org/2000/svg">
<path d="M0.816761 8.18856V5.27273H14.5547V8.18856H9.43359V22H5.93786V8.18856H0.816761ZM16.8171 22V5.27273H20.3537V12.1744H27.533V5.27273H31.0614V22H27.533V15.0902H20.3537V22H16.8171ZM33.9773 22V5.27273H45.2486V8.18856H37.5138V12.1744H44.6687V15.0902H37.5138V19.0842H45.2812V22H33.9773ZM53.3835 22V5.27273H59.983C61.2517 5.27273 62.3325 5.51503 63.2255 5.99964C64.1185 6.47881 64.7991 7.14583 65.2674 8.00071C65.7411 8.85014 65.978 9.83026 65.978 10.9411C65.978 12.0518 65.7384 13.032 65.2592 13.8814C64.7801 14.7308 64.0858 15.3924 63.1765 15.8661C62.2726 16.3398 61.1781 16.5767 59.8931 16.5767H55.6868V13.7425H59.3214C60.002 13.7425 60.5629 13.6255 61.0039 13.3913C61.4504 13.1518 61.7826 12.8223 62.0004 12.4031C62.2236 11.9783 62.3352 11.491 62.3352 10.9411C62.3352 10.3857 62.2236 9.90104 62.0004 9.48722C61.7826 9.06794 61.4504 8.74396 61.0039 8.51527C60.5574 8.28113 59.9911 8.16406 59.305 8.16406H56.9201V22H53.3835ZM83.6466 13.6364C83.6466 15.4605 83.3008 17.0123 82.6093 18.2919C81.9232 19.5715 80.9867 20.5489 79.7996 21.2241C78.618 21.8938 77.2894 22.2287 75.8138 22.2287C74.3273 22.2287 72.9933 21.8911 71.8117 21.2159C70.6301 20.5407 69.6963 19.5633 69.0102 18.2837C68.3241 17.0041 67.9811 15.455 67.9811 13.6364C67.9811 11.8123 68.3241 10.2604 69.0102 8.98082C69.6963 7.70123 70.6301 6.72656 71.8117 6.05682C72.9933 5.38163 74.3273 5.04403 75.8138 5.04403C77.2894 5.04403 78.618 5.38163 79.7996 6.05682C80.9867 6.72656 81.9232 7.70123 82.6093 8.98082C83.3008 10.2604 83.6466 11.8123 83.6466 13.6364ZM80.061 13.6364C80.061 12.4548 79.884 11.4583 79.5301 10.647C79.1816 9.8357 78.6888 9.22041 78.0518 8.80114C77.4147 8.38187 76.6687 8.17223 75.8138 8.17223C74.959 8.17223 74.213 8.38187 73.5759 8.80114C72.9388 9.22041 72.4433 9.8357 72.0894 10.647C71.7409 11.4583 71.5667 12.4548 71.5667 13.6364C71.5667 14.8179 71.7409 15.8144 72.0894 16.6257C72.4433 17.437 72.9388 18.0523 73.5759 18.4716C74.213 18.8909 74.959 19.1005 75.8138 19.1005C76.6687 19.1005 77.4147 18.8909 78.0518 18.4716C78.6888 18.0523 79.1816 17.437 79.5301 16.6257C79.884 15.8144 80.061 14.8179 80.061 13.6364ZM86.2663 22V5.27273H92.8658C94.129 5.27273 95.2072 5.4987 96.1001 5.95064C96.9986 6.39713 97.6819 7.03149 98.1502 7.85369C98.6239 8.67045 98.8608 9.63151 98.8608 10.7369C98.8608 11.8477 98.6212 12.8033 98.142 13.6037C97.6629 14.3987 96.9686 15.0085 96.0593 15.4332C95.1554 15.858 94.061 16.0703 92.7759 16.0703H88.3572V13.228H92.2042C92.8794 13.228 93.4402 13.1354 93.8867 12.9503C94.3332 12.7652 94.6654 12.4875 94.8832 12.1172C95.1064 11.7469 95.218 11.2868 95.218 10.7369C95.218 10.1815 95.1064 9.71319 94.8832 9.33203C94.6654 8.95088 94.3305 8.66229 93.8786 8.46626C93.4321 8.2648 92.8685 8.16406 92.1879 8.16406H89.8029V22H86.2663ZM95.2997 14.3878L99.457 22H95.5529L91.4854 14.3878H95.2997ZM100.723 8.18856V5.27273H114.461V8.18856H109.34V22H105.844V8.18856H100.723ZM116.723 22V5.27273H127.995V8.18856H120.26V12.1744H127.415V15.0902H120.26V19.0842H128.027V22H116.723ZM130.806 22V5.27273H137.406C138.669 5.27273 139.747 5.4987 140.64 5.95064C141.539 6.39713 142.222 7.03149 142.69 7.85369C143.164 8.67045 143.401 9.63151 143.401 10.7369C143.401 11.8477 143.161 12.8033 142.682 13.6037C142.203 14.3987 141.509 15.0085 140.599 15.4332C139.695 15.858 138.601 16.0703 137.316 16.0703H132.897V13.228H136.744C137.419 13.228 137.98 13.1354 138.427 12.9503C138.873 12.7652 139.205 12.4875 139.423 12.1172C139.646 11.7469 139.758 11.2868 139.758 10.7369C139.758 10.1815 139.646 9.71319 139.423 9.33203C139.205 8.95088 138.871 8.66229 138.419 8.46626C137.972 8.2648 137.409 8.16406 136.728 8.16406H134.343V22H130.806ZM139.84 14.3878L143.997 22H140.093L136.025 14.3878H139.84ZM151.223 5.27273H155.585L160.191 16.5114H160.387L164.994 5.27273H169.355V22H165.925V11.1126H165.786L161.457 21.9183H159.121L154.793 11.0717H154.654V22H151.223V5.27273ZM175.152 22H171.363L177.137 5.27273H181.695L187.461 22H183.671L179.481 9.09517H179.351L175.152 22ZM174.916 15.4251H183.867V18.1857H174.916V15.4251ZM189.474 22V5.27273H196.074C197.337 5.27273 198.415 5.4987 199.308 5.95064C200.207 6.39713 200.89 7.03149 201.358 7.85369C201.832 8.67045 202.069 9.63151 202.069 10.7369C202.069 11.8477 201.829 12.8033 201.35 13.6037C200.871 14.3987 200.177 15.0085 199.267 15.4332C198.363 15.858 197.269 16.0703 195.984 16.0703H191.565V13.228H195.412C196.087 13.228 196.648 13.1354 197.095 12.9503C197.541 12.7652 197.873 12.4875 198.091 12.1172C198.314 11.7469 198.426 11.2868 198.426 10.7369C198.426 10.1815 198.314 9.71319 198.091 9.33203C197.873 8.95088 197.539 8.66229 197.087 8.46626C196.64 8.2648 196.076 8.16406 195.396 8.16406H193.011V22H189.474ZM198.508 14.3878L202.665 22H198.761L194.693 14.3878H198.508ZM204.568 22V5.27273H208.105V12.6481H208.325L214.345 5.27273H218.584L212.376 12.7624L218.657 22H214.426L209.844 15.1229L208.105 17.2464V22H204.568ZM220.426 22V5.27273H231.697V8.18856H223.962V12.1744H231.117V15.0902H223.962V19.0842H231.729V22H220.426ZM233.871 8.18856V5.27273H247.609V8.18856H242.488V22H238.993V8.18856H233.871Z" fill="#FFE603"/>
<path d="M3.81676 8.18856V5.27273H17.5547V8.18856H12.4336V22H8.93786V8.18856H3.81676ZM19.8171 22V5.27273H23.3537V12.1744H30.533V5.27273H34.0614V22H30.533V15.0902H23.3537V22H19.8171ZM36.9773 22V5.27273H48.2486V8.18856H40.5138V12.1744H47.6687V15.0902H40.5138V19.0842H48.2812V22H36.9773ZM56.3835 22V5.27273H62.983C64.2517 5.27273 65.3325 5.51503 66.2255 5.99964C67.1185 6.47881 67.7991 7.14583 68.2674 8.00071C68.7411 8.85014 68.978 9.83026 68.978 10.9411C68.978 12.0518 68.7384 13.032 68.2592 13.8814C67.7801 14.7308 67.0858 15.3924 66.1765 15.8661C65.2726 16.3398 64.1781 16.5767 62.8931 16.5767H58.6868V13.7425H62.3214C63.002 13.7425 63.5629 13.6255 64.0039 13.3913C64.4504 13.1518 64.7826 12.8223 65.0004 12.4031C65.2236 11.9783 65.3352 11.491 65.3352 10.9411C65.3352 10.3857 65.2236 9.90104 65.0004 9.48722C64.7826 9.06794 64.4504 8.74396 64.0039 8.51527C63.5574 8.28113 62.9911 8.16406 62.305 8.16406H59.9201V22H56.3835ZM86.6466 13.6364C86.6466 15.4605 86.3008 17.0123 85.6093 18.2919C84.9232 19.5715 83.9867 20.5489 82.7996 21.2241C81.618 21.8938 80.2894 22.2287 78.8138 22.2287C77.3273 22.2287 75.9933 21.8911 74.8117 21.2159C73.6301 20.5407 72.6963 19.5633 72.0102 18.2837C71.3241 17.0041 70.9811 15.455 70.9811 13.6364C70.9811 11.8123 71.3241 10.2604 72.0102 8.98082C72.6963 7.70123 73.6301 6.72656 74.8117 6.05682C75.9933 5.38163 77.3273 5.04403 78.8138 5.04403C80.2894 5.04403 81.618 5.38163 82.7996 6.05682C83.9867 6.72656 84.9232 7.70123 85.6093 8.98082C86.3008 10.2604 86.6466 11.8123 86.6466 13.6364ZM83.061 13.6364C83.061 12.4548 82.884 11.4583 82.5301 10.647C82.1816 9.8357 81.6888 9.22041 81.0518 8.80114C80.4147 8.38187 79.6687 8.17223 78.8138 8.17223C77.959 8.17223 77.213 8.38187 76.5759 8.80114C75.9388 9.22041 75.4433 9.8357 75.0894 10.647C74.7409 11.4583 74.5667 12.4548 74.5667 13.6364C74.5667 14.8179 74.7409 15.8144 75.0894 16.6257C75.4433 17.437 75.9388 18.0523 76.5759 18.4716C77.213 18.8909 77.959 19.1005 78.8138 19.1005C79.6687 19.1005 80.4147 18.8909 81.0518 18.4716C81.6888 18.0523 82.1816 17.437 82.5301 16.6257C82.884 15.8144 83.061 14.8179 83.061 13.6364ZM89.2663 22V5.27273H95.8658C97.129 5.27273 98.2072 5.4987 99.1001 5.95064C99.9986 6.39713 100.682 7.03149 101.15 7.85369C101.624 8.67045 101.861 9.63151 101.861 10.7369C101.861 11.8477 101.621 12.8033 101.142 13.6037C100.663 14.3987 99.9686 15.0085 99.0593 15.4332C98.1554 15.858 97.061 16.0703 95.7759 16.0703H91.3572V13.228H95.2042C95.8794 13.228 96.4402 13.1354 96.8867 12.9503C97.3332 12.7652 97.6654 12.4875 97.8832 12.1172C98.1064 11.7469 98.218 11.2868 98.218 10.7369C98.218 10.1815 98.1064 9.71319 97.8832 9.33203C97.6654 8.95088 97.3305 8.66229 96.8786 8.46626C96.4321 8.2648 95.8685 8.16406 95.1879 8.16406H92.8029V22H89.2663ZM98.2997 14.3878L102.457 22H98.5529L94.4854 14.3878H98.2997ZM103.723 8.18856V5.27273H117.461V8.18856H112.34V22H108.844V8.18856H103.723ZM119.723 22V5.27273H130.995V8.18856H123.26V12.1744H130.415V15.0902H123.26V19.0842H131.027V22H119.723ZM133.806 22V5.27273H140.406C141.669 5.27273 142.747 5.4987 143.64 5.95064C144.539 6.39713 145.222 7.03149 145.69 7.85369C146.164 8.67045 146.401 9.63151 146.401 10.7369C146.401 11.8477 146.161 12.8033 145.682 13.6037C145.203 14.3987 144.509 15.0085 143.599 15.4332C142.695 15.858 141.601 16.0703 140.316 16.0703H135.897V13.228H139.744C140.419 13.228 140.98 13.1354 141.427 12.9503C141.873 12.7652 142.205 12.4875 142.423 12.1172C142.646 11.7469 142.758 11.2868 142.758 10.7369C142.758 10.1815 142.646 9.71319 142.423 9.33203C142.205 8.95088 141.871 8.66229 141.419 8.46626C140.972 8.2648 140.409 8.16406 139.728 8.16406H137.343V22H133.806ZM142.84 14.3878L146.997 22H143.093L139.025 14.3878H142.84ZM154.223 5.27273H158.585L163.191 16.5114H163.387L167.994 5.27273H172.355V22H168.925V11.1126H168.786L164.457 21.9183H162.121L157.793 11.0717H157.654V22H154.223V5.27273ZM178.152 22H174.363L180.137 5.27273H184.695L190.461 22H186.671L182.481 9.09517H182.351L178.152 22ZM177.916 15.4251H186.867V18.1857H177.916V15.4251ZM192.474 22V5.27273H199.074C200.337 5.27273 201.415 5.4987 202.308 5.95064C203.207 6.39713 203.89 7.03149 204.358 7.85369C204.832 8.67045 205.069 9.63151 205.069 10.7369C205.069 11.8477 204.829 12.8033 204.35 13.6037C203.871 14.3987 203.177 15.0085 202.267 15.4332C201.363 15.858 200.269 16.0703 198.984 16.0703H194.565V13.228H198.412C199.087 13.228 199.648 13.1354 200.095 12.9503C200.541 12.7652 200.873 12.4875 201.091 12.1172C201.314 11.7469 201.426 11.2868 201.426 10.7369C201.426 10.1815 201.314 9.71319 201.091 9.33203C200.873 8.95088 200.539 8.66229 200.087 8.46626C199.64 8.2648 199.076 8.16406 198.396 8.16406H196.011V22H192.474ZM201.508 14.3878L205.665 22H201.761L197.693 14.3878H201.508ZM207.568 22V5.27273H211.105V12.6481H211.325L217.345 5.27273H221.584L215.376 12.7624L221.657 22H217.426L212.844 15.1229L211.105 17.2464V22H207.568ZM223.426 22V5.27273H234.697V8.18856H226.962V12.1744H234.117V15.0902H226.962V19.0842H234.729V22H223.426ZM236.871 8.18856V5.27273H250.609V8.18856H245.488V22H241.993V8.18856H236.871Z" fill="#3B6EF1"/>
</svg>
