<svg width="252" height="127" viewBox="0 0 252 127" fill="none" xmlns="http://www.w3.org/2000/svg">
<path d="M0.816761 102.189V99.2727H14.5547V102.189H9.43359V116H5.93786V102.189H0.816761ZM16.8171 116V99.2727H20.3537V106.174H27.533V99.2727H31.0614V116H27.533V109.09H20.3537V116H16.8171ZM33.9773 116V99.2727H45.2486V102.189H37.5138V106.174H44.6687V109.09H37.5138V113.084H45.2812V116H33.9773ZM53.3835 116V99.2727H59.983C61.2517 99.2727 62.3325 99.515 63.2255 99.9996C64.1185 100.479 64.7991 101.146 65.2674 102.001C65.7411 102.85 65.978 103.83 65.978 104.941C65.978 106.052 65.7384 107.032 65.2592 107.881C64.7801 108.731 64.0858 109.392 63.1765 109.866C62.2726 110.34 61.1781 110.577 59.8931 110.577H55.6868V107.743H59.3214C60.002 107.743 60.5629 107.625 61.0039 107.391C61.4504 107.152 61.7826 106.822 62.0004 106.403C62.2236 105.978 62.3352 105.491 62.3352 104.941C62.3352 104.386 62.2236 103.901 62.0004 103.487C61.7826 103.068 61.4504 102.744 61.0039 102.515C60.5574 102.281 59.9911 102.164 59.305 102.164H56.9201V116H53.3835ZM83.6466 107.636C83.6466 109.46 83.3008 111.012 82.6093 112.292C81.9232 113.571 80.9867 114.549 79.7996 115.224C78.618 115.894 77.2894 116.229 75.8138 116.229C74.3273 116.229 72.9933 115.891 71.8117 115.216C70.6301 114.541 69.6963 113.563 69.0102 112.284C68.3241 111.004 67.9811 109.455 67.9811 107.636C67.9811 105.812 68.3241 104.26 69.0102 102.981C69.6963 101.701 70.6301 100.727 71.8117 100.057C72.9933 99.3816 74.3273 99.044 75.8138 99.044C77.2894 99.044 78.618 99.3816 79.7996 100.057C80.9867 100.727 81.9232 101.701 82.6093 102.981C83.3008 104.26 83.6466 105.812 83.6466 107.636ZM80.061 107.636C80.061 106.455 79.884 105.458 79.5301 104.647C79.1816 103.836 78.6888 103.22 78.0518 102.801C77.4147 102.382 76.6687 102.172 75.8138 102.172C74.959 102.172 74.213 102.382 73.5759 102.801C72.9388 103.22 72.4433 103.836 72.0894 104.647C71.7409 105.458 71.5667 106.455 71.5667 107.636C71.5667 108.818 71.7409 109.814 72.0894 110.626C72.4433 111.437 72.9388 112.052 73.5759 112.472C74.213 112.891 74.959 113.1 75.8138 113.1C76.6687 113.1 77.4147 112.891 78.0518 112.472C78.6888 112.052 79.1816 111.437 79.5301 110.626C79.884 109.814 80.061 108.818 80.061 107.636ZM86.2663 116V99.2727H92.8658C94.129 99.2727 95.2072 99.4987 96.1001 99.9506C96.9986 100.397 97.6819 101.031 98.1502 101.854C98.6239 102.67 98.8608 103.632 98.8608 104.737C98.8608 105.848 98.6212 106.803 98.142 107.604C97.6629 108.399 96.9686 109.009 96.0593 109.433C95.1554 109.858 94.061 110.07 92.7759 110.07H88.3572V107.228H92.2042C92.8794 107.228 93.4402 107.135 93.8867 106.95C94.3332 106.765 94.6654 106.487 94.8832 106.117C95.1064 105.747 95.218 105.287 95.218 104.737C95.218 104.181 95.1064 103.713 94.8832 103.332C94.6654 102.951 94.3305 102.662 93.8786 102.466C93.4321 102.265 92.8685 102.164 92.1879 102.164H89.8029V116H86.2663ZM95.2997 108.388L99.457 116H95.5529L91.4854 108.388H95.2997ZM100.723 102.189V99.2727H114.461V102.189H109.34V116H105.844V102.189H100.723ZM116.723 116V99.2727H127.995V102.189H120.26V106.174H127.415V109.09H120.26V113.084H128.027V116H116.723ZM130.806 116V99.2727H137.406C138.669 99.2727 139.747 99.4987 140.64 99.9506C141.539 100.397 142.222 101.031 142.69 101.854C143.164 102.67 143.401 103.632 143.401 104.737C143.401 105.848 143.161 106.803 142.682 107.604C142.203 108.399 141.509 109.009 140.599 109.433C139.695 109.858 138.601 110.07 137.316 110.07H132.897V107.228H136.744C137.419 107.228 137.98 107.135 138.427 106.95C138.873 106.765 139.205 106.487 139.423 106.117C139.646 105.747 139.758 105.287 139.758 104.737C139.758 104.181 139.646 103.713 139.423 103.332C139.205 102.951 138.871 102.662 138.419 102.466C137.972 102.265 137.409 102.164 136.728 102.164H134.343V116H130.806ZM139.84 108.388L143.997 116H140.093L136.025 108.388H139.84ZM151.223 99.2727H155.585L160.191 110.511H160.387L164.994 99.2727H169.355V116H165.925V105.113H165.786L161.457 115.918H159.121L154.793 105.072H154.654V116H151.223V99.2727ZM175.152 116H171.363L177.137 99.2727H181.695L187.461 116H183.671L179.481 103.095H179.351L175.152 116ZM174.916 109.425H183.867V112.186H174.916V109.425ZM189.474 116V99.2727H196.074C197.337 99.2727 198.415 99.4987 199.308 99.9506C200.207 100.397 200.89 101.031 201.358 101.854C201.832 102.67 202.069 103.632 202.069 104.737C202.069 105.848 201.829 106.803 201.35 107.604C200.871 108.399 200.177 109.009 199.267 109.433C198.363 109.858 197.269 110.07 195.984 110.07H191.565V107.228H195.412C196.087 107.228 196.648 107.135 197.095 106.95C197.541 106.765 197.873 106.487 198.091 106.117C198.314 105.747 198.426 105.287 198.426 104.737C198.426 104.181 198.314 103.713 198.091 103.332C197.873 102.951 197.539 102.662 197.087 102.466C196.64 102.265 196.076 102.164 195.396 102.164H193.011V116H189.474ZM198.508 108.388L202.665 116H198.761L194.693 108.388H198.508ZM204.568 116V99.2727H208.105V106.648H208.325L214.345 99.2727H218.584L212.376 106.762L218.657 116H214.426L209.844 109.123L208.105 111.246V116H204.568ZM220.426 116V99.2727H231.697V102.189H223.962V106.174H231.117V109.09H223.962V113.084H231.729V116H220.426ZM233.871 102.189V99.2727H247.609V102.189H242.488V116H238.993V102.189H233.871Z" fill="white"/>
<path d="M53 93V21.5H112.9C120.3 21.5 126.033 23.3667 130.1 27.1C134.233 30.8333 136.3 36.5 136.3 44.1C136.3 51.7 134.233 57.3667 130.1 61.1C126.033 64.8333 120.3 66.7 112.9 66.7H69V93H53ZM111 34.5H69V53.6L111 53.7C113.933 53.7 116.167 52.9667 117.7 51.5C119.3 50.0333 120.1 47.5667 120.1 44.1C120.1 40.5667 119.3 38.1 117.7 36.7C116.167 35.2333 113.933 34.5 111 34.5ZM146.262 93V21.5H159.662L192.762 44.7H193.262L226.362 21.5H239.762V93H223.762V41.5L201.062 56.7V93H185.062V56.7L162.262 41.5V93H146.262Z" fill="#FFE603"/>
<path d="M58 93V21.5H117.9C125.3 21.5 131.033 23.3667 135.1 27.1C139.233 30.8333 141.3 36.5 141.3 44.1C141.3 51.7 139.233 57.3667 135.1 61.1C131.033 64.8333 125.3 66.7 117.9 66.7H74V93H58ZM116 34.5H74V53.6L116 53.7C118.933 53.7 121.167 52.9667 122.7 51.5C124.3 50.0333 125.1 47.5667 125.1 44.1C125.1 40.5667 124.3 38.1 122.7 36.7C121.167 35.2333 118.933 34.5 116 34.5ZM151.262 93V21.5H164.662L197.762 44.7H198.262L231.362 21.5H244.762V93H228.762V41.5L206.062 56.7V93H190.062V56.7L167.262 41.5V93H151.262Z" fill="white"/>
<circle cx="27" cy="14" r="9.5" fill="white" stroke="#3B6EF1"/>
<rect x="7.5" y="35.5" width="39" height="7" rx="2.5" fill="#FFFDFD" stroke="#3B6EF1"/>
<rect x="12.5" y="14.5" width="29" height="7" rx="2.5" fill="white" stroke="#3B6EF1"/>
<rect x="17" y="22" width="20" height="13" fill="white"/>
<circle cx="27" cy="28" r="5" fill="white"/>
<circle cx="26" cy="27" r="4" fill="#FFE603"/>
<mask id="path-10-inside-1_2201_13" fill="white">
<path fill-rule="evenodd" clip-rule="evenodd" d="M12 43H42V73.8719C41.8078 73.9635 41.6102 74.0543 41.4069 74.1444C38.7303 75.3297 35.0325 76.3822 29.4448 77.0031C22.6129 77.7622 16.7783 76.2992 12 73.8291V43ZM41.8118 75.0587C41.8751 75.0307 41.9378 75.0026 42 74.9745V84.8334C40.637 85.0903 39.1265 85.3162 37.4448 85.5031C26.1471 86.7584 17.5768 81.9372 12 76.5333V74.9529C16.8425 77.3613 22.7113 78.7574 29.5552 77.9969C35.2175 77.3678 39.0197 76.2953 41.8118 75.0587ZM12 77.906V93H42V85.8506C40.6588 86.0983 39.184 86.316 37.5552 86.4969C26.3462 87.7424 17.753 83.2032 12 77.906Z"/>
</mask>
<path fill-rule="evenodd" clip-rule="evenodd" d="M12 43H42V73.8719C41.8078 73.9635 41.6102 74.0543 41.4069 74.1444C38.7303 75.3297 35.0325 76.3822 29.4448 77.0031C22.6129 77.7622 16.7783 76.2992 12 73.8291V43ZM41.8118 75.0587C41.8751 75.0307 41.9378 75.0026 42 74.9745V84.8334C40.637 85.0903 39.1265 85.3162 37.4448 85.5031C26.1471 86.7584 17.5768 81.9372 12 76.5333V74.9529C16.8425 77.3613 22.7113 78.7574 29.5552 77.9969C35.2175 77.3678 39.0197 76.2953 41.8118 75.0587ZM12 77.906V93H42V85.8506C40.6588 86.0983 39.184 86.316 37.5552 86.4969C26.3462 87.7424 17.753 83.2032 12 77.906Z" fill="white"/>
<path d="M42 43H43V42H42V43ZM12 43V42H11V43H12ZM42 73.8719L42.4301 74.7747L43 74.5032V73.8719H42ZM41.4069 74.1444L41.002 73.23L41.4069 74.1444ZM29.4448 77.0031L29.5552 77.9969L29.4448 77.0031ZM12 73.8291H11V74.4378L11.5408 74.7174L12 73.8291ZM42 74.9745H43V73.4239L41.5875 74.0635L42 74.9745ZM41.8118 75.0587L42.2168 75.9731L42.2168 75.9731L41.8118 75.0587ZM42 84.8334L42.1852 85.8161L43 85.6625V84.8334H42ZM37.4448 85.5031L37.5552 86.4969L37.4448 85.5031ZM12 76.5333H11V76.9568L11.3041 77.2515L12 76.5333ZM12 74.9529L12.4453 74.0575L11 73.3387V74.9529H12ZM29.5552 77.9969L29.4448 77.0031L29.5552 77.9969ZM12 77.906L12.6774 77.1704L11 75.6259V77.906H12ZM12 93H11V94H12V93ZM42 93V94H43V93H42ZM42 85.8506H43V84.649L41.8184 84.8672L42 85.8506ZM37.5552 86.4969L37.4448 85.5031L37.5552 86.4969ZM42 42H12V44H42V42ZM43 73.8719V43H41V73.8719H43ZM41.8118 75.0587C42.0236 74.9649 42.2296 74.8702 42.4301 74.7747L41.5699 72.9691C41.386 73.0567 41.1969 73.1437 41.002 73.23L41.8118 75.0587ZM29.5552 77.9969C35.2175 77.3678 39.0197 76.2953 41.8118 75.0587L41.002 73.23C38.4409 74.3642 34.8475 75.3966 29.3344 76.0092L29.5552 77.9969ZM11.5408 74.7174C16.4775 77.2694 22.509 78.7799 29.5552 77.9969L29.3344 76.0092C22.7167 76.7445 17.0792 75.329 12.4592 72.9407L11.5408 74.7174ZM11 43V73.8291H13V43H11ZM41.5875 74.0635C41.5278 74.0905 41.4676 74.1175 41.4069 74.1444L42.2168 75.9731C42.2825 75.944 42.3478 75.9147 42.4125 75.8854L41.5875 74.0635ZM43 84.8334V74.9745H41V84.8334H43ZM37.5552 86.4969C39.2594 86.3076 40.795 86.0781 42.1852 85.8161L41.8148 83.8507C40.479 84.1024 38.9935 84.3248 37.3344 84.5092L37.5552 86.4969ZM11.3041 77.2515C17.0328 82.8025 25.8843 87.7937 37.5552 86.4969L37.3344 84.5092C26.4098 85.723 18.1209 81.072 12.6959 75.8152L11.3041 77.2515ZM11 74.9529V76.5333H13V74.9529H11ZM29.4448 77.0031C22.8078 77.7405 17.131 76.3879 12.4453 74.0575L11.5547 75.8482C16.554 78.3347 22.6148 79.7743 29.6656 78.9908L29.4448 77.0031ZM41.4069 74.1444C38.7303 75.3297 35.0325 76.3822 29.4448 77.0031L29.6656 78.9908C35.4025 78.3534 39.3091 77.2608 42.2168 75.9731L41.4069 74.1444ZM11 77.906V93H13V77.906H11ZM12 94H42V92H12V94ZM43 93V85.8506H41V93H43ZM41.8184 84.8672C40.503 85.1102 39.052 85.3245 37.4448 85.5031L37.6656 87.4908C39.3159 87.3075 40.8147 87.0864 42.1816 86.834L41.8184 84.8672ZM37.4448 85.5031C26.5926 86.7089 18.2747 82.3242 12.6774 77.1704L11.3226 78.6417C17.2313 84.0822 26.0999 88.7759 37.6656 87.4908L37.4448 85.5031Z" fill="white" mask="url(#path-10-inside-1_2201_13)"/>
</svg>
